<svg  viewBox="0 0 215 169" fill="none" xmlns="http://www.w3.org/2000/svg">
    <line x1="214.905" y1="164.106" x2="144.277" y2="164.694" stroke="black" stroke-width="8" />
    <line x1="28.6387" y1="67.0365" x2="28.6387" y2="162.204" stroke="black" stroke-width="8" />
    <line x1="189.5" y1="70.0172" x2="189.047" y2="162.222" stroke="black" stroke-width="8" />
    <line x1="108.724" y1="2.73472" x2="13.5566" y2="78.7493" stroke="black" stroke-width="8" />
    <path d="M187.942 119.109C176.188 156.518 144.847 164 144.847 164" stroke="black" stroke-width="8" />
    <line y1="-3.5" x2="70.6303" y2="-3.5" transform="matrix(0.999965 0.00833304 0.00833304 -0.999965 1 160.606)"
        stroke="black" stroke-width="8" />
    <path d="M27.9343 119.109C39.6874 156.518 71.0292 164 71.0292 164" stroke="black" stroke-width="8" />
    <line x1="203.785" y1="83.7098" x2="104.839" y2="2.82709" stroke="black" stroke-width="8" />
    <rect x="83.7956" y="102.35" width="19.1533" height="19.1533" fill="black" />
    <rect x="110.73" y="102.35" width="19.1533" height="19.1533" fill="black" />
    <path
        d="M102.051 76.0146C99.6538 76.0146 97.2799 76.4868 95.065 77.4042C92.8502 78.3216 90.8377 79.6663 89.1425 81.3615C87.4473 83.0567 86.1027 85.0691 85.1852 87.284C84.2678 89.4989 83.7956 91.8727 83.7956 94.2701L102.051 94.2701L102.051 76.0146Z"
        fill="black" />
    <path
        d="M111.029 76.0146C113.427 76.0146 115.8 76.4868 118.015 77.4042C120.23 78.3216 122.243 79.6663 123.938 81.3615C125.633 83.0567 126.978 85.0691 127.895 87.284C128.812 89.4989 129.285 91.8727 129.285 94.2701L111.029 94.2701L111.029 76.0146Z"
        fill="black" />
</svg>